<?xml version="1.0" encoding="iso-8859-1"?>
<!-- Generator: Adobe Illustrator 16.0.0, SVG Export Plug-In . SVG Version: 6.00 Build 0)  -->
<!DOCTYPE svg PUBLIC "-//W3C//DTD SVG 1.1//EN" "http://www.w3.org/Graphics/SVG/1.1/DTD/svg11.dtd">
<svg version="1.1" id="Capa_1" xmlns="http://www.w3.org/2000/svg" xmlns:xlink="http://www.w3.org/1999/xlink" x="0px" y="0px"
	 width="573.699px" height="573.699px" viewBox="0 0 573.699 573.699" style="enable-background:new 0 0 573.699 573.699;"
	 xml:space="preserve">
<g>
	<path d="M398.301,31.699c-41,0-80.201,14.3-111.401,40c-31.2-25.7-70.4-40-111.4-40c-96.8,0-175.5,78.7-175.5,175.5
		c0,49.6,20.5,95.9,56.8,129.1V512.6c0,16.299,13.2,29.4,29.4,29.4h401.3c16.199,0,29.4-13.201,29.4-29.4v-176.4
		c36.299-33.199,56.799-79.5,56.799-129.1C573.699,110.399,495,31.699,398.301,31.699z M469.5,299.299
		c-7.199,5.6-11.4,14.201-11.4,23.301v160.5H115.7V322.6c0-9.1-4.2-17.701-11.4-23.301c-28.9-22.299-45.4-55.899-45.4-92.2
		c0-64.3,52.3-116.6,116.6-116.6c34.3,0,66.7,15.1,88.9,41.3c11.2,13.2,33.7,13.2,44.901,0C329.5,108,358.1,93.5,388.9,91
		c-16.201,10.1-27.1,27.9-27.1,48.4c0,31.5,25.5,57.1,57.1,57.1s57.1-25.5,57.1-57.1c0-8.4-1.9-16.3-5.199-23.5
		c26.898,21.4,44.199,54.3,44.199,91.3C514.9,243.399,498.4,277,469.5,299.299z M383.801,211.799c0,15.2-12.301,27.5-27.5,27.5
		c-15.201,0-27.5-12.3-27.5-27.5s12.299-27.5,27.5-27.5C371.5,184.299,383.801,196.599,383.801,211.799z M434.4,234.099
		c-2.801,10.7-13.9,17.2-24.6,14.4c-10.801-2.8-17.201-13.9-14.301-24.6c2.801-10.8,13.801-17.2,24.6-14.3
		C430.801,212.399,437.199,223.399,434.4,234.099z"/>
</g>
<g>
</g>
<g>
</g>
<g>
</g>
<g>
</g>
<g>
</g>
<g>
</g>
<g>
</g>
<g>
</g>
<g>
</g>
<g>
</g>
<g>
</g>
<g>
</g>
<g>
</g>
<g>
</g>
<g>
</g>
</svg>
